<svg width="512" height="512" viewBox="0 0 512 512" fill="none" xmlns="http://www.w3.org/2000/svg">
  <!-- Background -->
  <rect width="512" height="512" rx="64" fill="#0f172a"/>

  <!-- Bingo grid (5x5) centered -->
  <g transform="translate(106, 106)">
    <!-- Grid background -->
    <rect width="300" height="300" rx="16" fill="#1e293b"/>

    <!-- Grid cells -->
    <!-- Row 1 -->
    <rect x="10" y="10" width="50" height="50" rx="8" fill="#334155"/>
    <rect x="70" y="10" width="50" height="50" rx="8" fill="#334155"/>
    <rect x="130" y="10" width="50" height="50" rx="8" fill="#334155"/>
    <rect x="190" y="10" width="50" height="50" rx="8" fill="#334155"/>
    <rect x="250" y="10" width="50" height="50" rx="8" fill="#10b981"/>

    <!-- Row 2 -->
    <rect x="10" y="70" width="50" height="50" rx="8" fill="#334155"/>
    <rect x="70" y="70" width="50" height="50" rx="8" fill="#334155"/>
    <rect x="130" y="70" width="50" height="50" rx="8" fill="#334155"/>
    <rect x="190" y="70" width="50" height="50" rx="8" fill="#10b981"/>
    <rect x="250" y="70" width="50" height="50" rx="8" fill="#334155"/>

    <!-- Row 3 -->
    <rect x="10" y="130" width="50" height="50" rx="8" fill="#334155"/>
    <rect x="70" y="130" width="50" height="50" rx="8" fill="#334155"/>
    <rect x="130" y="130" width="50" height="50" rx="8" fill="#fbbf24"/>
    <rect x="190" y="130" width="50" height="50" rx="8" fill="#334155"/>
    <rect x="250" y="130" width="50" height="50" rx="8" fill="#334155"/>

    <!-- Row 4 -->
    <rect x="10" y="190" width="50" height="50" rx="8" fill="#334155"/>
    <rect x="70" y="190" width="50" height="50" rx="8" fill="#10b981"/>
    <rect x="130" y="190" width="50" height="50" rx="8" fill="#334155"/>
    <rect x="190" y="190" width="50" height="50" rx="8" fill="#334155"/>
    <rect x="250" y="190" width="50" height="50" rx="8" fill="#334155"/>

    <!-- Row 5 -->
    <rect x="10" y="250" width="50" height="50" rx="8" fill="#10b981"/>
    <rect x="70" y="250" width="50" height="50" rx="8" fill="#334155"/>
    <rect x="130" y="250" width="50" height="50" rx="8" fill="#334155"/>
    <rect x="190" y="250" width="50" height="50" rx="8" fill="#334155"/>
    <rect x="250" y="250" width="50" height="50" rx="8" fill="#334155"/>

    <!-- Checkmarks on winning diagonal -->
    <path d="M 260 25 L 268 35 L 285 15" stroke="white" stroke-width="4" stroke-linecap="round" stroke-linejoin="round" fill="none"/>
    <path d="M 200 85 L 208 95 L 225 75" stroke="white" stroke-width="4" stroke-linecap="round" stroke-linejoin="round" fill="none"/>
    <path d="M 80 205 L 88 215 L 105 195" stroke="white" stroke-width="4" stroke-linecap="round" stroke-linejoin="round" fill="none"/>
    <path d="M 20 265 L 28 275 L 45 255" stroke="white" stroke-width="4" stroke-linecap="round" stroke-linejoin="round" fill="none"/>

    <!-- Briefcase icon in center (FREE SPACE) -->
    <g transform="translate(155, 155)">
      <rect x="-12" y="-8" width="24" height="16" rx="2" fill="#1e293b" stroke="#fbbf24" stroke-width="2.5"/>
      <rect x="-6" y="-12" width="12" height="6" rx="1" fill="#1e293b" stroke="#fbbf24" stroke-width="2"/>
      <line x1="0" y1="-8" x2="0" y2="8" stroke="#fbbf24" stroke-width="2"/>
    </g>
  </g>
</svg>
