<svg xmlns="http://www.w3.org/2000/svg" viewBox="0 0 200 200" width="200" height="200">
  <defs>
    <!-- Gradient for depth -->
    <linearGradient id="cyanGradient" x1="0%" y1="0%" x2="100%" y2="100%">
      <stop offset="0%" style="stop-color:#00d4ff;stop-opacity:1" />
      <stop offset="100%" style="stop-color:#0099cc;stop-opacity:1" />
    </linearGradient>
    
    <!-- Glow effect -->
    <filter id="glow">
      <feGaussianBlur stdDeviation="3" result="coloredBlur"/>
      <feMerge>
        <feMergeNode in="coloredBlur"/>
        <feMergeNode in="SourceGraphic"/>
      </feMerge>
    </filter>
    
    <!-- Grid pattern -->
    <pattern id="gridPattern" x="0" y="0" width="40" height="40" patternUnits="userSpaceOnUse">
      <path d="M 40 0 L 0 0 0 40" fill="none" stroke="#00d4ff" stroke-width="0.5" opacity="0.3"/>
    </pattern>
  </defs>
  
  <!-- Background circle -->
  <circle cx="100" cy="100" r="95" fill="#0a0a0a"/>
  
  <!-- Grid overlay -->
  <rect x="20" y="20" width="160" height="160" fill="url(#gridPattern)" opacity="0.5"/>
  
  <!-- Combined CB monogram -->
  <g filter="url(#glow)">
    <!-- Letter C -->
    <path d="M 80 60 Q 50 60 50 100 Q 50 140 80 140 L 80 120 Q 70 120 70 100 Q 70 80 80 80 Z" 
          fill="url(#cyanGradient)" opacity="0.9"/>
    
    <!-- Letter B -->
    <path d="M 90 60 L 90 140 L 120 140 Q 150 140 150 120 Q 150 105 140 100 Q 150 95 150 80 Q 150 60 120 60 Z 
             M 110 80 L 120 80 Q 130 80 130 85 Q 130 90 120 90 L 110 90 Z 
             M 110 110 L 120 110 Q 130 110 130 115 Q 130 120 120 120 L 110 120 Z" 
          fill="url(#cyanGradient)"/>
  </g>
  
  <!-- Bingo grid lines accent -->
  <g opacity="0.6">
    <line x1="40" y1="60" x2="40" y2="140" stroke="#00d4ff" stroke-width="0.5"/>
    <line x1="160" y1="60" x2="160" y2="140" stroke="#00d4ff" stroke-width="0.5"/>
    <line x1="40" y1="100" x2="160" y2="100" stroke="#00d4ff" stroke-width="0.5"/>
  </g>
  
  <!-- Decorative dots (bingo markers) -->
  <circle cx="35" cy="35" r="3" fill="#00d4ff" opacity="0.5"/>
  <circle cx="165" cy="35" r="3" fill="#00d4ff" opacity="0.5"/>
  <circle cx="35" cy="165" r="3" fill="#00d4ff" opacity="0.5"/>
  <circle cx="165" cy="165" r="3" fill="#00d4ff" opacity="0.5"/>
</svg>