<svg width="32" height="32" viewBox="0 0 32 32" fill="none" xmlns="http://www.w3.org/2000/svg">
  <rect x="4" y="4" width="4.8" height="4.8" rx="1" stroke="#ffffff" stroke-width="1" fill="none"/>
  <rect x="9.6" y="4" width="4.8" height="4.8" rx="1" stroke="#ffffff" stroke-width="1" fill="none"/>
  <rect x="15.2" y="4" width="4.8" height="4.8" rx="1" stroke="#ffffff" stroke-width="1" fill="none"/>
  <rect x="20.8" y="4" width="4.8" height="4.8" rx="1" stroke="#ffffff" stroke-width="1" fill="none"/>
  <rect x="26.4" y="4" width="4.8" height="4.8" rx="1" stroke="#ffffff" stroke-width="1" fill="none"/>
  
  <rect x="4" y="9.6" width="4.8" height="4.8" rx="1" stroke="#ffffff" stroke-width="1" fill="none"/>
  <rect x="9.6" y="9.6" width="4.8" height="4.8" rx="1" stroke="#ffffff" stroke-width="1" fill="none"/>
  <rect x="15.2" y="9.6" width="4.8" height="4.8" rx="1" stroke="#ffffff" stroke-width="1" fill="none"/>
  <rect x="20.8" y="9.6" width="4.8" height="4.8" rx="1" stroke="#ffffff" stroke-width="1" fill="none"/>
  <rect x="26.4" y="9.6" width="4.8" height="4.8" rx="1" stroke="#ffffff" stroke-width="1" fill="none"/>
  
  <rect x="4" y="15.2" width="4.8" height="4.8" rx="1" stroke="#ffffff" stroke-width="1" fill="none"/>
  <rect x="9.6" y="15.2" width="4.8" height="4.8" rx="1" stroke="#ffffff" stroke-width="1" fill="none"/>
  <circle cx="17.6" cy="17.6" r="2" fill="#007aff"/>
  <rect x="20.8" y="15.2" width="4.8" height="4.8" rx="1" stroke="#ffffff" stroke-width="1" fill="none"/>
  <rect x="26.4" y="15.2" width="4.8" height="4.8" rx="1" stroke="#ffffff" stroke-width="1" fill="none"/>
  
  <rect x="4" y="20.8" width="4.8" height="4.8" rx="1" stroke="#ffffff" stroke-width="1" fill="none"/>
  <rect x="9.6" y="20.8" width="4.8" height="4.8" rx="1" stroke="#ffffff" stroke-width="1" fill="none"/>
  <rect x="15.2" y="20.8" width="4.8" height="4.8" rx="1" stroke="#ffffff" stroke-width="1" fill="none"/>
  <rect x="20.8" y="20.8" width="4.8" height="4.8" rx="1" stroke="#ffffff" stroke-width="1" fill="none"/>
  <rect x="26.4" y="20.8" width="4.8" height="4.8" rx="1" stroke="#ffffff" stroke-width="1" fill="none"/>
  
  <rect x="4" y="26.4" width="4.8" height="4.8" rx="1" stroke="#ffffff" stroke-width="1" fill="none"/>
  <rect x="9.6" y="26.4" width="4.8" height="4.8" rx="1" stroke="#ffffff" stroke-width="1" fill="none"/>
  <rect x="15.2" y="26.4" width="4.8" height="4.8" rx="1" stroke="#ffffff" stroke-width="1" fill="none"/>
  <rect x="20.8" y="26.4" width="4.8" height="4.8" rx="1" stroke="#ffffff" stroke-width="1" fill="none"/>
  <rect x="26.4" y="26.4" width="4.8" height="4.8" rx="1" stroke="#ffffff" stroke-width="1" fill="none"/>
</svg>