<svg width="64" height="64" viewBox="0 0 64 64" fill="none" xmlns="http://www.w3.org/2000/svg">
  <!-- Background Circle -->
  <circle cx="32" cy="32" r="32" fill="#1a1a1a" stroke="#00d4ff" stroke-width="2"/>
  
  <!-- Grid Pattern (Bingo Card) -->
  <g opacity="0.3">
    <line x1="16" y1="20" x2="48" y2="20" stroke="#333" stroke-width="1"/>
    <line x1="16" y1="28" x2="48" y2="28" stroke="#333" stroke-width="1"/>
    <line x1="16" y1="36" x2="48" y2="36" stroke="#333" stroke-width="1"/>
    <line x1="16" y1="44" x2="48" y2="44" stroke="#333" stroke-width="1"/>
    
    <line x1="20" y1="16" x2="20" y2="48" stroke="#333" stroke-width="1"/>
    <line x1="28" y1="16" x2="28" y2="48" stroke="#333" stroke-width="1"/>
    <line x1="36" y1="16" x2="36" y2="48" stroke="#333" stroke-width="1"/>
    <line x1="44" y1="16" x2="44" y2="48" stroke="#333" stroke-width="1"/>
  </g>
  
  <!-- Corporate Elements -->
  <!-- Briefcase Icon -->
  <rect x="14" y="18" width="12" height="8" rx="1" fill="#00d4ff" opacity="0.8"/>
  <rect x="19" y="16" width="2" height="2" fill="#00d4ff"/>
  
  <!-- Chart/Graph Icon -->
  <g opacity="0.8">
    <rect x="38" y="22" width="2" height="6" fill="#00d4ff"/>
    <rect x="42" y="20" width="2" height="8" fill="#00d4ff"/>
    <rect x="46" y="18" width="2" height="10" fill="#00d4ff"/>
  </g>
  
  <!-- Center "CB" Monogram -->
  <circle cx="32" cy="32" r="10" fill="#00d4ff" opacity="0.1"/>
  <text x="32" y="38" text-anchor="middle" font-family="Arial, sans-serif" font-size="14" font-weight="bold" fill="#00d4ff">CB</text>
  
  <!-- Meeting/People Icon -->
  <circle cx="18" cy="42" r="2" fill="#00d4ff" opacity="0.6"/>
  <circle cx="24" cy="42" r="2" fill="#00d4ff" opacity="0.6"/>
  
  <!-- Accent Elements -->
  <rect x="42" y="38" width="6" height="2" rx="1" fill="#00d4ff" opacity="0.4"/>
  <rect x="16" y="30" width="4" height="4" rx="1" fill="#00d4ff" opacity="0.3"/>
  
  <!-- Corporate Badge -->
  <polygon points="48,12 56,12 56,20 48,20 46,16" fill="#00d4ff" opacity="0.8"/>
  <text x="52" y="17" text-anchor="middle" font-family="Arial, sans-serif" font-size="6" font-weight="bold" fill="#1a1a1a">PRO</text>
</svg>