<svg width="64" height="64" viewBox="0 0 64 64" fill="none" xmlns="http://www.w3.org/2000/svg">
  <!-- Clean circular background -->
  <circle cx="32" cy="32" r="30" fill="#1a1a1a" stroke="#00d4ff" stroke-width="2"/>
  
  <!-- Subtle 5x5 bingo grid -->
  <g opacity="0.15">
    <!-- Vertical lines -->
    <line x1="14" y1="14" x2="14" y2="50" stroke="#333" stroke-width="0.5"/>
    <line x1="23" y1="14" x2="23" y2="50" stroke="#333" stroke-width="0.5"/>
    <line x1="32" y1="14" x2="32" y2="50" stroke="#333" stroke-width="0.5"/>
    <line x1="41" y1="14" x2="41" y2="50" stroke="#333" stroke-width="0.5"/>
    <line x1="50" y1="14" x2="50" y2="50" stroke="#333" stroke-width="0.5"/>
    
    <!-- Horizontal lines -->
    <line x1="14" y1="14" x2="50" y2="14" stroke="#333" stroke-width="0.5"/>
    <line x1="14" y1="23" x2="50" y2="23" stroke="#333" stroke-width="0.5"/>
    <line x1="14" y1="32" x2="50" y2="32" stroke="#333" stroke-width="0.5"/>
    <line x1="14" y1="41" x2="50" y2="41" stroke="#333" stroke-width="0.5"/>
    <line x1="14" y1="50" x2="50" y2="50" stroke="#333" stroke-width="0.5"/>
  </g>
  
  <!-- Center highlight for "FREE SPACE" concept -->
  <rect x="28" y="28" width="8" height="8" fill="#00d4ff" opacity="0.3" rx="1"/>
  
  <!-- Clean CB monogram -->
  <text x="32" y="42" text-anchor="middle" font-family="Arial, sans-serif" font-size="16" font-weight="bold" fill="#00d4ff" letter-spacing="1px">CB</text>
  
  <!-- Subtle accent dots in corners for visual balance -->
  <circle cx="20" cy="20" r="1" fill="#00d4ff" opacity="0.6"/>
  <circle cx="44" cy="20" r="1" fill="#00d4ff" opacity="0.6"/>
  <circle cx="20" cy="44" r="1" fill="#00d4ff" opacity="0.6"/>
  <circle cx="44" cy="44" r="1" fill="#00d4ff" opacity="0.6"/>
</svg>